<svg width="16" height="16" viewBox="0 0 16 16" fill="none" xmlns="http://www.w3.org/2000/svg">
<path d="M14.7314 1.11542L13.4197 3.97205C12.2156 1.91614 10.1084 0.747524 7.63561 0.747524C3.20614 0.747524 0.195816 4.12354 0.195816 8.27863C0.195816 12.4337 3.20614 15.8097 7.63561 15.8097C9.97936 15.8097 12.0006 14.7493 13.2262 12.8882V15.4635H16V1.11542H14.7314ZM8.04415 14.2732C4.92632 14.2732 3.20614 11.7196 3.20614 8.27863C3.20614 4.75113 4.92632 2.28404 8.04415 2.28404C10.904 2.28404 13.0327 4.79441 13.0327 8.27863C13.0327 11.7629 10.904 14.2732 8.04415 14.2732Z" fill="#214E41"/>
</svg>
