<svg width="16" height="21" viewBox="0 0 16 21" fill="none" xmlns="http://www.w3.org/2000/svg">
<path d="M9.46101 10.0108C12.2778 9.42651 14.4495 7.91163 14.4495 5.27141C14.4495 2.02525 12.0198 0.467087 8.27838 0.467087H0V20.4851H9.15998C12.5358 20.4851 15.2021 18.7538 15.2021 15.0965C15.2021 12.0667 12.6649 10.2272 9.46101 10.0108ZM7.33228 1.91704C10.0201 1.91704 11.4177 3.28043 11.4177 5.4229C11.4177 7.56537 9.89106 9.23174 7.09576 9.23174H3.09633V1.91704H7.33228ZM7.69782 18.9919H3.09633V10.8981H7.22477C10.1706 10.8981 11.9983 12.3481 11.9983 14.9666C11.9983 17.2606 10.4716 18.9919 7.69782 18.9919Z" fill="#214E41"/>
</svg>
