<svg width="16" height="16" viewBox="0 0 16 16" fill="none" xmlns="http://www.w3.org/2000/svg">
<path d="M7.73681 0.747524C3.28583 0.747524 0.125 3.99369 0.125 8.27863C0.125 12.5636 3.22133 15.8097 7.71531 15.8097C9.39249 15.8314 11.0482 15.3336 12.4458 14.3814C13.6069 13.4941 14.4455 12.239 14.8326 10.8106H11.9728C11.5427 12.6285 10.4246 14.2949 7.90883 14.2949C4.36095 14.2949 3.22133 11.5032 3.15682 8.51669V8.4734H15.1551C15.1551 8.32192 15.1551 8.21371 15.1551 8.12715C15.1766 3.8422 12.1448 0.747524 7.73681 0.747524ZM7.75831 2.2624C10.8976 2.2624 11.8867 4.8377 11.9728 6.91524H3.24283C3.50086 4.38323 4.791 2.2624 7.75831 2.2624Z" fill="#214E41"/>
</svg>
